<?xml version="1.0" standalone="no"?>
<!DOCTYPE svg PUBLIC "-//W3C//DTD SVG 20010904//EN"
 "http://www.w3.org/TR/2001/REC-SVG-20010904/DTD/svg10.dtd">
<svg version="1.0" xmlns="http://www.w3.org/2000/svg"
 width="1344.000000pt" height="1344.000000pt" viewBox="0 0 1344.000000 1344.000000"
 preserveAspectRatio="xMidYMid meet">
<metadata>
Created by potrace 1.14, written by Peter Selinger 2001-2017
</metadata>
<g transform="translate(0.000000,1344.000000) scale(0.100000,-0.100000)"
fill="#000000" stroke="none">
<path d="M6130 11314 c-615 -44 -1147 -177 -1665 -416 -519 -240 -919 -521
-1336 -937 -353 -353 -580 -655 -802 -1067 -327 -607 -502 -1210 -548 -1889
-14 -215 -7 -626 15 -830 87 -793 385 -1562 855 -2207 358 -493 846 -940 1357
-1247 569 -343 1193 -557 1854 -637 181 -22 710 -30 907 -15 763 61 1475 300
2130 715 464 294 916 721 1259 1191 438 598 731 1329 833 2075 35 256 44 435
37 740 -6 308 -19 449 -61 690 -139 793 -472 1517 -994 2160 -122 150 -481
505 -651 643 -705 571 -1551 922 -2440 1012 -147 15 -632 27 -750 19z m677
-479 c625 -57 1239 -266 1801 -612 433 -267 872 -677 1173 -1098 435 -607 698
-1306 770 -2050 18 -184 16 -624 -5 -814 -79 -745 -332 -1408 -772 -2021 -126
-176 -232 -298 -424 -491 -345 -346 -679 -587 -1095 -793 -466 -231 -922 -362
-1445 -418 -164 -17 -656 -17 -820 0 -835 88 -1594 404 -2240 931 -138 112
-442 416 -562 561 -462 559 -768 1222 -893 1934 -79 446 -80 968 -5 1420 105
627 361 1235 742 1759 239 329 590 680 913 914 839 607 1818 873 2862 778z"/>
<path d="M4960 8456 c0 -172 0 -174 23 -179 12 -3 97 -20 190 -37 l167 -32 0
-1478 0 -1478 -32 -6 c-18 -3 -89 -12 -158 -21 -69 -8 -142 -18 -162 -21 l-38
-6 0 -164 0 -164 1435 0 1435 0 4 22 c3 13 35 307 71 653 36 347 68 648 71
670 l6 41 -229 27 c-125 15 -233 28 -240 27 -7 0 -80 -207 -174 -492 -88 -271
-164 -496 -168 -501 -5 -5 -839 -56 -943 -57 -5 0 -8 664 -8 1475 0 971 3
1475 10 1475 12 0 405 59 443 66 l27 6 0 174 0 174 -865 0 -865 0 0 -174z"/>
</g>
</svg>
