<?xml version="1.0" standalone="no"?>
<!DOCTYPE svg PUBLIC "-//W3C//DTD SVG 20010904//EN"
 "http://www.w3.org/TR/2001/REC-SVG-20010904/DTD/svg10.dtd">
<svg version="1.0" xmlns="http://www.w3.org/2000/svg"
 width="300.000000pt" height="300.000000pt" viewBox="0 0 300.000000 300.000000"
 preserveAspectRatio="xMidYMid meet">
<metadata>
Created by potrace 1.14, written by Peter Selinger 2001-2017
</metadata>
<g transform="translate(0.000000,300.000000) scale(0.100000,-0.100000)"
fill="#000000" stroke="none">
<path d="M1368 2995 c-2 -1 -30 -6 -63 -10 -33 -3 -80 -11 -105 -16 -25 -6
-52 -12 -61 -14 -87 -18 -295 -100 -374 -148 -317 -191 -528 -433 -659 -756
-24 -59 -62 -184 -72 -234 -2 -12 -6 -33 -9 -47 -13 -63 -18 -136 -18 -270 0
-168 5 -218 38 -355 105 -431 386 -782 791 -989 73 -38 250 -102 307 -111 18
-3 48 -10 67 -15 134 -34 438 -33 589 1 25 6 53 12 61 14 304 63 647 292 845
565 127 174 232 408 261 580 3 14 7 31 9 37 18 52 26 333 13 458 -16 147 -72
333 -145 479 -224 447 -640 748 -1133 821 -46 7 -336 16 -342 10z m319 -209
c11 -2 43 -8 70 -12 110 -16 295 -88 418 -164 308 -188 515 -481 597 -845 22
-97 33 -364 18 -433 -5 -20 -10 -53 -13 -72 -9 -64 -49 -194 -88 -283 -163
-377 -510 -660 -919 -748 -83 -18 -137 -23 -255 -23 -249 -1 -391 31 -597 134
-348 175 -596 488 -683 863 -24 105 -30 167 -29 317 0 156 16 253 61 390 94
278 276 515 518 674 171 112 357 182 535 202 30 3 57 8 59 10 6 6 279 -3 308
-10z"/>
<path d="M860 2445 c0 -41 2 -45 28 -50 135 -27 193 -62 208 -125 7 -30 10
-280 10 -732 -1 -679 -1 -687 -22 -715 -25 -34 -62 -53 -117 -60 -23 -3 -51
-6 -62 -8 -11 -1 -26 -3 -32 -4 -8 -1 -13 -17 -13 -46 l0 -45 715 0 715 0 1
23 c1 12 3 31 4 42 2 11 6 63 9 115 8 114 14 201 20 293 3 37 2 67 -2 68 -4 1
-24 2 -44 3 l-37 2 -40 -83 c-45 -94 -149 -258 -183 -291 -57 -52 -129 -66
-353 -66 -191 0 -236 11 -265 69 -22 44 -27 1423 -5 1473 17 40 69 65 170 82
l70 12 -2 37 c-1 20 -2 39 -2 44 -1 4 -174 7 -386 7 l-385 0 0 -45z"/>
</g>
</svg>
